<?xml version="1.0" standalone="no"?>
<!DOCTYPE svg PUBLIC "-//W3C//DTD SVG 20010904//EN"
 "http://www.w3.org/TR/2001/REC-SVG-20010904/DTD/svg10.dtd">
<svg version="1.0" xmlns="http://www.w3.org/2000/svg"
 width="1024.000000pt" height="1024.000000pt" viewBox="0 0 1024.000000 1024.000000"
 preserveAspectRatio="xMidYMid meet">
<metadata>
Created by potrace 1.11, written by Peter Selinger 2001-2013
</metadata>
<g transform="translate(0.000000,1024.000000) scale(0.100000,-0.100000)"
fill="#000000" stroke="none">
<path d="M0 5120 l0 -5120 5120 0 5120 0 0 5120 0 5120 -5120 0 -5120 0 0
-5120z m5201 3026 c24 -7 429 -236 899 -508 l855 -494 5 330 c6 371 6 373 80
444 60 59 108 72 270 72 165 0 211 -13 274 -76 77 -77 76 -68 76 -658 l1 -521
530 -305 c292 -168 548 -320 569 -338 55 -46 80 -104 80 -185 0 -58 -5 -75
-41 -143 -112 -214 -167 -265 -290 -272 -50 -3 -77 1 -110 16 -24 10 -770 438
-1657 951 -888 512 -1618 931 -1623 931 -6 0 -743 -423 -1639 -940 -896 -517
-1640 -944 -1655 -950 -14 -5 -53 -10 -86 -10 -74 0 -137 28 -182 80 -45 53
-143 228 -157 280 -22 81 6 175 72 237 18 17 643 384 1388 814 745 430 1531
883 1745 1007 215 124 406 231 425 238 46 17 117 17 171 0z m382 -2791 l1037
-420 0 -281 0 -281 -167 -68 c-93 -37 -690 -279 -1328 -537 -638 -259 -1170
-474 -1182 -479 l-23 -9 0 304 0 303 989 379 c545 208 987 382 983 386 -10 10
-1502 593 -1919 750 l-53 19 0 304 0 303 313 -126 c172 -70 779 -316 1350
-547z m-2880 129 c62 -21 130 -89 151 -151 12 -34 16 -84 16 -183 0 -165 -13
-211 -76 -274 -63 -63 -109 -76 -274 -76 -165 0 -211 13 -274 76 -63 63 -76
109 -76 274 0 165 13 211 76 274 63 63 103 74 270 75 104 1 153 -3 187 -15z
m5200 0 c62 -21 130 -89 151 -151 12 -34 16 -84 16 -183 0 -165 -13 -211 -76
-274 -63 -63 -109 -76 -274 -76 -165 0 -211 13 -274 76 -63 63 -76 109 -76
274 0 165 13 211 76 274 63 63 103 74 270 75 104 1 153 -3 187 -15z m-5200
-900 c62 -21 130 -89 151 -151 12 -34 16 -84 16 -183 0 -165 -13 -211 -76
-274 -63 -63 -109 -76 -274 -76 -165 0 -211 13 -274 76 -63 63 -76 109 -76
274 0 165 13 211 76 274 63 63 103 74 270 75 104 1 153 -3 187 -15z m5200 0
c62 -21 130 -89 151 -151 12 -34 16 -84 16 -183 0 -165 -13 -211 -76 -274 -63
-63 -109 -76 -274 -76 -165 0 -211 13 -274 76 -63 63 -76 109 -76 274 0 165
13 211 76 274 63 63 103 74 270 75 104 1 153 -3 187 -15z m-5200 -900 c62 -21
130 -89 151 -151 12 -34 16 -84 16 -183 0 -165 -13 -211 -76 -274 -63 -63
-109 -76 -274 -76 -165 0 -211 13 -274 76 -63 63 -76 109 -76 274 0 165 13
211 76 274 63 63 103 74 270 75 104 1 153 -3 187 -15z m5200 0 c62 -21 130
-89 151 -151 12 -34 16 -84 16 -183 0 -165 -13 -211 -76 -274 -63 -63 -109
-76 -274 -76 -165 0 -211 13 -274 76 -63 63 -76 109 -76 274 0 165 13 211 76
274 63 63 103 74 270 75 104 1 153 -3 187 -15z m0 -900 c62 -21 130 -89 151
-151 12 -34 16 -84 16 -183 0 -165 -13 -211 -76 -274 -83 -83 196 -76 -2874
-76 -3070 0 -2791 -7 -2874 76 -63 63 -76 109 -76 274 0 165 13 211 76 274 81
81 -192 74 2870 75 2488 1 2745 0 2787 -15z"/>
</g>
</svg>
